<?xml version="1.0" standalone="no"?>
<!DOCTYPE svg PUBLIC "-//W3C//DTD SVG 20010904//EN"
 "http://www.w3.org/TR/2001/REC-SVG-20010904/DTD/svg10.dtd">
<svg version="1.0" xmlns="http://www.w3.org/2000/svg"
 width="512.000000pt" height="512.000000pt" viewBox="0 0 512.000000 512.000000"
 preserveAspectRatio="xMidYMid meet">

<g transform="translate(0.000000,512.000000) scale(0.100000,-0.100000)"
fill="#000000" stroke="none">
<path d="M1700 3410 c-28 -28 -34 -63 -16 -96 8 -16 179 -193 380 -394 l366
-365 -381 -382 c-376 -376 -382 -382 -375 -415 8 -41 39 -68 80 -68 27 0 72
41 408 377 l378 378 378 -378 c335 -334 382 -377 409 -377 17 0 39 3 48 6 23
9 47 61 40 87 -4 12 -176 192 -383 400 l-377 377 379 379 c335 335 379 383
379 410 0 42 -37 81 -77 81 -27 0 -75 -44 -406 -375 -206 -206 -379 -375 -385
-375 -5 0 -179 169 -385 375 -338 338 -379 375 -408 375 -19 0 -40 -8 -52 -20z"/>
</g>
</svg>
